<svg width="24" height="16" viewBox="0 0 24 16" fill="none" xmlns="http://www.w3.org/2000/svg">
    <path
        d="M1.90129 15.9053C1.18778 15.9053 0.609375 15.3269 0.609375 14.6134C0.609375 13.8999 1.18779 13.3215 1.90129 13.3215H22.572C23.2855 13.3215 23.8639 13.8999 23.8639 14.6134C23.8639 15.3269 23.2855 15.9053 22.572 15.9053H1.90129ZM1.90129 9.44576C1.18778 9.44576 0.609375 8.86735 0.609375 8.15384C0.609375 7.44034 1.18779 6.86193 1.90129 6.86193H22.572C23.2855 6.86193 23.8639 7.44034 23.8639 8.15384C23.8639 8.86735 23.2855 9.44576 22.572 9.44576H1.90129ZM1.90129 2.98618C1.18778 2.98618 0.609375 2.40777 0.609375 1.69426C0.609375 0.980755 1.18779 0.402344 1.90129 0.402344H22.572C23.2855 0.402344 23.8639 0.980755 23.8639 1.69426C23.8639 2.40777 23.2855 2.98618 22.572 2.98618H1.90129Z"
        fill="#F8F8F8" />
</svg>
    