<svg width="19" height="19" viewBox="0 0 19 19" fill="none" xmlns="http://www.w3.org/2000/svg">
    <g clip-path="url(#clip0_80_620)">
        <path
            d="M0.254639 2.07735C0.254639 1.61271 0.439214 1.16711 0.767761 0.838562C1.09631 0.510015 1.54191 0.325439 2.00655 0.325439H3.75846C4.22309 0.325439 4.66869 0.510015 4.99724 0.838562C5.32579 1.16711 5.51036 1.61271 5.51036 2.07735V3.82926C5.51036 4.29389 5.32579 4.7395 4.99724 5.06804C4.66869 5.39659 4.22309 5.58116 3.75846 5.58116H2.00655C1.54191 5.58116 1.09631 5.39659 0.767761 5.06804C0.439214 4.7395 0.254639 4.29389 0.254639 3.82926V2.07735Z"
            fill="#535353" />
        <path
            d="M0.254639 8.7513C0.254639 8.28666 0.439214 7.84106 0.767761 7.51251C1.09631 7.18397 1.54191 6.99939 2.00655 6.99939H3.75846C4.22309 6.99939 4.66869 7.18397 4.99724 7.51251C5.32579 7.84106 5.51036 8.28666 5.51036 8.7513V10.5032C5.51036 10.9678 5.32579 11.4134 4.99724 11.742C4.66869 12.0705 4.22309 12.2551 3.75846 12.2551H2.00655C1.54191 12.2551 1.09631 12.0705 0.767761 11.742C0.439214 11.4134 0.254639 10.9678 0.254639 10.5032V8.7513Z"
            fill="#535353" />
        <path
            d="M0.254639 15.4251C0.254639 14.9605 0.439214 14.5149 0.767761 14.1863C1.09631 13.8578 1.54191 13.6732 2.00655 13.6732H3.75846C4.22309 13.6732 4.66869 13.8578 4.99724 14.1863C5.32579 14.5149 5.51036 14.9605 5.51036 15.4251V17.177C5.51036 17.6417 5.32579 18.0873 4.99724 18.4158C4.66869 18.7444 4.22309 18.9289 3.75846 18.9289H2.00655C1.54191 18.9289 1.09631 18.7444 0.767761 18.4158C0.439214 18.0873 0.254639 17.6417 0.254639 17.177V15.4251Z"
            fill="#535353" />
        <path
            d="M6.92822 2.07735C6.92822 1.61271 7.1128 1.16711 7.44134 0.838562C7.76989 0.510015 8.2155 0.325439 8.68013 0.325439H10.432C10.8967 0.325439 11.3423 0.510015 11.6708 0.838562C11.9994 1.16711 12.1839 1.61271 12.1839 2.07735V3.82926C12.1839 4.29389 11.9994 4.7395 11.6708 5.06804C11.3423 5.39659 10.8967 5.58116 10.432 5.58116H8.68013C8.2155 5.58116 7.76989 5.39659 7.44134 5.06804C7.1128 4.7395 6.92822 4.29389 6.92822 3.82926V2.07735Z"
            fill="#535353" />
        <path
            d="M6.92822 8.7513C6.92822 8.28666 7.1128 7.84106 7.44134 7.51251C7.76989 7.18397 8.2155 6.99939 8.68013 6.99939H10.432C10.8967 6.99939 11.3423 7.18397 11.6708 7.51251C11.9994 7.84106 12.1839 8.28666 12.1839 8.7513V10.5032C12.1839 10.9678 11.9994 11.4134 11.6708 11.742C11.3423 12.0705 10.8967 12.2551 10.432 12.2551H8.68013C8.2155 12.2551 7.76989 12.0705 7.44134 11.742C7.1128 11.4134 6.92822 10.9678 6.92822 10.5032V8.7513Z"
            fill="#535353" />
        <path
            d="M6.92822 15.4251C6.92822 14.9605 7.1128 14.5149 7.44134 14.1863C7.76989 13.8578 8.2155 13.6732 8.68013 13.6732H10.432C10.8967 13.6732 11.3423 13.8578 11.6708 14.1863C11.9994 14.5149 12.1839 14.9605 12.1839 15.4251V17.177C12.1839 17.6417 11.9994 18.0873 11.6708 18.4158C11.3423 18.7444 10.8967 18.9289 10.432 18.9289H8.68013C8.2155 18.9289 7.76989 18.7444 7.44134 18.4158C7.1128 18.0873 6.92822 17.6417 6.92822 17.177V15.4251Z"
            fill="#535353" />
        <path
            d="M13.6023 2.07735C13.6023 1.61271 13.7869 1.16711 14.1154 0.838562C14.444 0.510015 14.8896 0.325439 15.3542 0.325439H17.1061C17.5707 0.325439 18.0164 0.510015 18.3449 0.838562C18.6734 1.16711 18.858 1.61271 18.858 2.07735V3.82926C18.858 4.29389 18.6734 4.7395 18.3449 5.06804C18.0164 5.39659 17.5707 5.58116 17.1061 5.58116H15.3542C14.8896 5.58116 14.444 5.39659 14.1154 5.06804C13.7869 4.7395 13.6023 4.29389 13.6023 3.82926V2.07735Z"
            fill="#535353" />
        <path
            d="M13.6023 8.7513C13.6023 8.28666 13.7869 7.84106 14.1154 7.51251C14.444 7.18397 14.8896 6.99939 15.3542 6.99939H17.1061C17.5707 6.99939 18.0164 7.18397 18.3449 7.51251C18.6734 7.84106 18.858 8.28666 18.858 8.7513V10.5032C18.858 10.9678 18.6734 11.4134 18.3449 11.742C18.0164 12.0705 17.5707 12.2551 17.1061 12.2551H15.3542C14.8896 12.2551 14.444 12.0705 14.1154 11.742C13.7869 11.4134 13.6023 10.9678 13.6023 10.5032V8.7513Z"
            fill="#535353" />
        <path
            d="M13.6023 15.4251C13.6023 14.9605 13.7869 14.5149 14.1154 14.1863C14.444 13.8578 14.8896 13.6732 15.3542 13.6732H17.1061C17.5707 13.6732 18.0164 13.8578 18.3449 14.1863C18.6734 14.5149 18.858 14.9605 18.858 15.4251V17.177C18.858 17.6417 18.6734 18.0873 18.3449 18.4158C18.0164 18.7444 17.5707 18.9289 17.1061 18.9289H15.3542C14.8896 18.9289 14.444 18.7444 14.1154 18.4158C13.7869 18.0873 13.6023 17.6417 13.6023 17.177V15.4251Z"
            fill="#535353" />
    </g>
    <defs>
        <clipPath id="clip0_80_620">
            <rect width="18.6036" height="18.6036" fill="white"
                transform="translate(0.254761 0.325439)" />
        </clipPath>
    </defs>
</svg>